<svg xmlns="http://www.w3.org/2000/svg" viewBox="0 0 63.43 54.21"><defs><style>.cls-1{fill:#cb5375;}.cls-2{fill:#6a59a2;}</style></defs><g id="Layer_2" data-name="Layer 2"><g id="Layer_1-2" data-name="Layer 1"><path class="cls-1" d="M.9,36.85a.86.86,0,0,1-.64-.26A.88.88,0,0,1,0,36V.84A.8.8,0,0,1,.69,0a1.82,1.82,0,0,1,.55.08.68.68,0,0,1,.39.39L14.08,24.31,25.89,3.22a.83.83,0,0,1,.74-.43.6.6,0,0,1,.42.11.81.81,0,0,1,.42.5.89.89,0,0,1,0,.66L14.82,26.57c-.22.35-.48.5-.8.42a.69.69,0,0,1-.73-.42L1.74,4.43V36a.9.9,0,0,1-.24.63A.76.76,0,0,1,.9,36.85Zm4.64,0a.77.77,0,0,1-.61-.26A.9.9,0,0,1,4.69,36V19.46a.75.75,0,0,1,.85-.85.92.92,0,0,1,.63.24.8.8,0,0,1,.26.61V36a.88.88,0,0,1-.26.63A.85.85,0,0,1,5.54,36.85ZM14.6,16.92a.88.88,0,0,1-.79-.42L6.91,4.06A.75.75,0,0,1,6.8,3.4a1,1,0,0,1,.42-.55,1.74,1.74,0,0,1,.43-.11.74.74,0,0,1,.73.48l7,12.39a.75.75,0,0,1,.11.66,1,1,0,0,1-.42.55A1.67,1.67,0,0,1,14.6,16.92ZM33.43,36.85a.86.86,0,0,1-.64-.26.88.88,0,0,1-.26-.63V4.27l-15.29,28a.86.86,0,0,1-.79.47.82.82,0,0,1-.42-.16.78.78,0,0,1-.42-.5.74.74,0,0,1,.1-.66L32.64.42a.7.7,0,0,1,.42-.34A2.08,2.08,0,0,1,33.64,0a.78.78,0,0,1,.63.84V36a.9.9,0,0,1-.24.63A.75.75,0,0,1,33.43,36.85ZM29,35.06a.82.82,0,0,1,.53.45,1.15,1.15,0,0,1,0,.76.82.82,0,0,1-.9.64,1.31,1.31,0,0,1-.79-.5.94.94,0,0,1-.1-.77.9.9,0,0,1,.89-.63A.85.85,0,0,1,29,35.06Zm-.32-1.16a.74.74,0,0,1-.84-.84V19.46a.75.75,0,0,1,.84-.85.88.88,0,0,1,.63.24.78.78,0,0,1,.27.61v13.6a.76.76,0,0,1-.27.6A.88.88,0,0,1,28.68,33.9Z"/><path class="cls-2" d="M57.72,52.13a.82.82,0,0,1,.66.29,1,1,0,0,1,.26.69.81.81,0,0,1-.92.92H41.49a1,1,0,0,1-.69-.26.85.85,0,0,1-.29-.66.94.94,0,0,1,.29-.69.91.91,0,0,1,.69-.29Zm4.73-38.57a1,1,0,0,1,1,1V31.28a1,1,0,0,1-1,1H46.69a1,1,0,0,1-1-1,.82.82,0,0,1,.29-.66,1,1,0,0,1,.69-.26H61.53V15.46h-20a.82.82,0,0,1-.92-.92,1,1,0,0,1,.26-.7.84.84,0,0,1,.66-.28ZM41.61,49a1,1,0,0,1-.7-.29.94.94,0,0,1-.28-.69.88.88,0,0,1,.28-.67,1,1,0,0,1,.7-.26h15V40.64a1,1,0,0,1,.29-.7,1,1,0,0,1,.69-.28.86.86,0,0,1,.67.28,1,1,0,0,1,.26.7V48a1,1,0,0,1-.26.69.87.87,0,0,1-.67.29Zm-.18-28.58a.87.87,0,0,1-.57-.49,1.05,1.05,0,0,1-.06-.78V19.1a1,1,0,0,1,1-.69,1.37,1.37,0,0,1,.87.55,1,1,0,0,1,.11.83,1,1,0,0,1-1,.7A.82.82,0,0,1,41.43,20.43Zm16.11,7.74a1,1,0,0,1-.69-.26,1,1,0,0,1-.29-.73V20.37H45a1,1,0,0,1-.69-.29.94.94,0,0,1-.29-.69.88.88,0,0,1,.29-.67,1,1,0,0,1,.69-.26H57.54a.82.82,0,0,1,.93.93v7.79Q58.47,28.17,57.54,28.17Zm4.91,7.21a1,1,0,0,1,.7.29.94.94,0,0,1,.28.69V53.23a1,1,0,0,1-.28.69,1,1,0,0,1-.7.29.85.85,0,0,1-.66-.29,1,1,0,0,1-.26-.69V37.29H46.69A1,1,0,0,1,46,37a.84.84,0,0,1-.29-.67.91.91,0,0,1,.29-.69.94.94,0,0,1,.69-.29Z"/></g></g></svg>